# xmcd CD database file
#
# Track frame offsets:
#	150
#	14415
#	30037
#	52097
#	68215
#	80219
#	100600
#	111993
#	126367
#	143850
#
# Disc length: 2225 seconds
#
# Revision: 4
# Processed by: cddbd v1.4PL0 Copyright (c) Steve Scherf et al.
# Submitted via: CDex 1.50
#
DISCID=8708af0a
DTITLE=Canned Heat - One More River to Cross
DYEAR=1973
DGENRE=Rock
TTITLE0=One More River To Cross
TTITLE1=L.A. Town
TTITLE2=I Need Someone
TTITLE3=Bagful Of Boogie
TTITLE4=I'm A Hog For You, Babe
TTITLE5=You Am What You Am
TTITLE6=Shake, Rattle And Roll
TTITLE7=Bright Times Are Comin'
TTITLE8=Highway 401
TTITLE9=We Remember Fats
EXTD=YEAR: 1973
EXTT0=
EXTT1=
EXTT2=
EXTT3=
EXTT4=
EXTT5=
EXTT6=
EXTT7=
EXTT8=
EXTT9=
PLAYORDER=
